<?xml version="1.0" encoding="iso-8859-1"?>
<!-- Generator: Adobe Illustrator 19.0.0, SVG Export Plug-In . SVG Version: 6.00 Build 0)  -->
<svg version="1.1" id="Capa_1" xmlns="http://www.w3.org/2000/svg" xmlns:xlink="http://www.w3.org/1999/xlink" x="0px" y="0px"
	 viewBox="0 0 490 490" style="enable-background:new 0 0 490 490;" xml:space="preserve">
<g>
	<polygon points="453.138,469.149 453.138,115.322 431.36,115.322 431.36,469.149 321.637,469.149 321.637,188.331 299.859,188.331 
		299.859,469.149 190.135,469.149 190.135,149.867 168.358,149.867 168.358,469.149 58.634,469.149 58.634,236.192 36.857,236.192 
		36.857,469.149 0,469.149 0,490 490,490 490,469.149 	"/>
	<path d="M181.352,86.876L307.01,147.28c4.243,2.026,9.347,1.222,12.67-2.025l111.68-109.27v46.604h21.778V10.426
		C453.138,4.662,448.263,0,442.249,0h-73.755v20.852h47.864L309.675,125.229L184.133,64.885c-4.185-2.006-9.23-1.243-12.548,1.914
		L40.084,191.538l15.323,14.803L181.352,86.876z"/>
</g>
<g>
</g>
<g>
</g>
<g>
</g>
<g>
</g>
<g>
</g>
<g>
</g>
<g>
</g>
<g>
</g>
<g>
</g>
<g>
</g>
<g>
</g>
<g>
</g>
<g>
</g>
<g>
</g>
<g>
</g>
</svg>
