<svg xmlns="http://www.w3.org/2000/svg" width="21.88" height="15.639" viewBox="0 0 21.88 15.639">
  <g id="Group_679" data-name="Group 679" transform="translate(-62.06 -227.407)">
    <path id="Path_587" data-name="Path 587" d="M21.239,0H.641A.641.641,0,0,0,0,.641V2.009a.641.641,0,0,0,.641.641h20.6a.641.641,0,0,0,.641-.641V.641A.641.641,0,0,0,21.239,0Z" transform="translate(62.06 227.407)" opacity="0.4"/>
    <path id="Path_588" data-name="Path 588" d="M191,256.205a.641.641,0,0,0,.4.6l4.273.709a.641.641,0,0,0,.879-.6V252H191Z" transform="translate(-120.778 -14.509)" opacity="0.4"/>
    <path id="Path_589" data-name="Path 589" d="M45.342,97.555h7.368L58.266,92H39.787Z" transform="translate(23.973 138.927)" fill="#c51162"/>
  </g>
</svg>
