<svg xmlns="http://www.w3.org/2000/svg" width="21.88" height="15.639" viewBox="0 0 21.88 15.639">
  <g id="Group_678" data-name="Group 678" transform="translate(-62.06 -107.407)">
    <path id="Path_584" data-name="Path 584" d="M21.239,0H.641A.641.641,0,0,0,0,.641V2.009a.641.641,0,0,0,.641.641h20.6a.641.641,0,0,0,.641-.641V.641A.641.641,0,0,0,21.239,0Z" transform="translate(62.06 107.407)" fill="#c51162"/>
    <path id="Path_585" data-name="Path 585" d="M191,256.205a.641.641,0,0,0,.4.6l4.273.709a.641.641,0,0,0,.879-.6V252H191Z" transform="translate(-120.778 -134.509)" opacity="0.4"/>
    <path id="Path_586" data-name="Path 586" d="M45.342,97.555h7.368L58.266,92H39.787Z" transform="translate(23.973 18.927)" opacity="0.4"/>
  </g>
</svg>
