<svg xmlns="http://www.w3.org/2000/svg" width="20" height="20" viewBox="0 0 20 20">
  <g id="Group_593" data-name="Group 593" transform="translate(-650.837 -301)">
    <path id="Path_204" data-name="Path 204" d="M946.75,351.407h0a10,10,0,0,1-10-10h0a10,10,0,0,1,10-10h0a10,10,0,0,1,10,10h0A10,10,0,0,1,946.75,351.407Z" transform="translate(-285.913 -30.407)" fill="#36f"/>
    <g id="Group_129" data-name="Group 129" transform="translate(658.367 305.677)">
      <path id="Path_237" data-name="Path 237" d="M964.875,350.736h-1.484v5.317h-2.214v-5.317H960.13v-1.874h1.046v-1.217a2.632,2.632,0,0,1,.17-.961,1.868,1.868,0,0,1,.669-.888,2.336,2.336,0,0,1,1.387-.389l1.643.012v1.825h-1.192a.471.471,0,0,0-.3.1.512.512,0,0,0-.158.414v1.107h1.679Z" transform="translate(-960.13 -345.407)" fill="#fff"/>
    </g>
  </g>
</svg>
