<svg xmlns="http://www.w3.org/2000/svg" width="21.88" height="15.639" viewBox="0 0 21.88 15.639">
  <g id="Group_680" data-name="Group 680" transform="translate(-62.06 -345.407)">
    <path id="Path_590" data-name="Path 590" d="M21.239,0H.641A.641.641,0,0,0,0,.641V2.009a.641.641,0,0,0,.641.641h20.6a.641.641,0,0,0,.641-.641V.641A.641.641,0,0,0,21.239,0Z" transform="translate(62.06 345.407)" opacity="0.4"/>
    <path id="Path_591" data-name="Path 591" d="M191,256.205a.641.641,0,0,0,.4.6l4.273.709a.641.641,0,0,0,.879-.6V252H191Z" transform="translate(-120.778 103.491)" fill="#c51162"/>
    <path id="Path_592" data-name="Path 592" d="M45.342,97.555h7.368L58.266,92H39.787Z" transform="translate(23.973 256.927)" opacity="0.4"/>
  </g>
</svg>
