<svg xmlns="http://www.w3.org/2000/svg" width="20" height="20" viewBox="0 0 20 20">
  <g id="Group_594" data-name="Group 594" transform="translate(-870.837 -306)">
    <path id="Path_192" data-name="Path 192" d="M1019.25,496.259h0a10,10,0,0,1-10-10h0a10,10,0,0,1,10-10h0a10,10,0,0,1,10,10h0A10,10,0,0,1,1019.25,496.259Z" transform="translate(-138.413 -170.259)" fill="#00cdb3"/>
    <g id="Group_142" data-name="Group 142" transform="translate(875.955 311.09)">
      <path id="Path_250" data-name="Path 250" d="M1031.8,497.961l-1.4,1.324a2.914,2.914,0,0,0-.791-.533,3.122,3.122,0,0,0-2.842.184,3.3,3.3,0,0,0-1.159,1.186,3.249,3.249,0,0,0,0,3.238,3.225,3.225,0,0,0,1.159,1.177,3.054,3.054,0,0,0,1.591.432,3.111,3.111,0,0,0,1.619-.4,2.592,2.592,0,0,0,.92-.9,2.274,2.274,0,0,0,.368-.9h-2.906V501h4.838a3.546,3.546,0,0,1,.073.865,5.319,5.319,0,0,1-.616,2.584,4.5,4.5,0,0,1-1.729,1.775,5.289,5.289,0,0,1-5.141-.046,5.109,5.109,0,0,1-1.858-1.849,5.044,5.044,0,0,1-.7-2.594,4.95,4.95,0,0,1,.7-2.575,5.108,5.108,0,0,1,1.858-1.849,5,5,0,0,1,2.575-.69A4.908,4.908,0,0,1,1031.8,497.961Z" transform="translate(-1023.23 -496.617)" fill="#fff"/>
    </g>
  </g>
</svg>
