<svg xmlns="http://www.w3.org/2000/svg" xmlns:xlink="http://www.w3.org/1999/xlink" width="22" height="22" viewBox="0 0 22 22">
  <defs>
    <linearGradient id="linear-gradient" x1="0.86" y1="0.153" x2="0.147" y2="0.84" gradientUnits="objectBoundingBox">
      <stop offset="0" stop-color="#ff5400"/>
      <stop offset="0.6" stop-color="#975efd"/>
      <stop offset="1" stop-color="#3e74fd"/>
    </linearGradient>
  </defs>
  <g id="Group_676" data-name="Group 676" transform="translate(-61 -328)">
    <g id="Group_674" data-name="Group 674" transform="translate(-738 -849)" opacity="0.5">
      <g id="Group_673" data-name="Group 673" transform="translate(799 1177)">
        <circle id="Ellipse_30" data-name="Ellipse 30" cx="11" cy="11" r="11" fill="url(#linear-gradient)"/>
        <path id="Path_593" data-name="Path 593" d="M1319.133,621.5a6.272,6.272,0,1,0,0,12.543,6.44,6.44,0,0,0,3.852-1.29v1.26l2.453.843v-6.644c0-.144,0-.289,0-.437A6.286,6.286,0,0,0,1319.133,621.5Zm-.005,10.1a3.826,3.826,0,1,1,3.865-3.826A3.845,3.845,0,0,1,1319.128,631.6Z" transform="translate(-1308.42 -617.236)" fill="#fff"/>
      </g>
    </g>
    <line id="Line_298" data-name="Line 298" x1="18" y2="17" transform="translate(63.5 330.5)" fill="none" stroke="#707070" stroke-width="1"/>
  </g>
</svg>
