<?xml version="1.0" encoding="utf-8"?>
<!-- Generator: Adobe Illustrator 22.0.0, SVG Export Plug-In . SVG Version: 6.00 Build 0)  -->
<svg version="1.1" id="Capa_1" xmlns="http://www.w3.org/2000/svg" xmlns:xlink="http://www.w3.org/1999/xlink" x="0px" y="0px"
	 viewBox="0 0 490 490" style="enable-background:new 0 0 490 490;" xml:space="preserve">
<style type="text/css">
	.st0{fill:#EE50F8;}
</style>
<g>
	<polygon class="st0" points="453.1,469.1 453.1,115.3 431.4,115.3 431.4,469.1 321.6,469.1 321.6,188.3 299.9,188.3 299.9,469.1 
		190.1,469.1 190.1,149.9 168.4,149.9 168.4,469.1 58.6,469.1 58.6,236.2 36.9,236.2 36.9,469.1 0,469.1 0,490 490,490 490,469.1 	
		"/>
	<path class="st0" d="M181.4,86.9L307,147.3c4.2,2,9.3,1.2,12.7-2L431.4,36v46.6h21.8V10.4c0-5.8-4.9-10.4-10.9-10.4h-73.8v20.9
		h47.9L309.7,125.2L184.1,64.9c-4.2-2-9.2-1.2-12.5,1.9L40.1,191.5l15.3,14.8L181.4,86.9z"/>
</g>
</svg>
